<svg viewBox="0 0 48 48" xmlns="http://www.w3.org/2000/svg">
<path d="m7 44h34a3 3 0 0 0 3-3v-34a3 3 0 0 0 -3-3h-34a3 3 0 0 0 -3 3v34a3 3 0 0 0 3 3zm35-3a1 1 0 0 1 -1 1h-34a1 1 0 0 1 -1-1v-28h36zm-36-34a1 1 0 0 1 1-1h34a1 1 0 0 1 1 1v4h-36z" fill="currentColor"></path>
<path d="m24 39a11 11 0 1 0 -11-11 11 11 0 0 0 11 11zm0-20a9 9 0 1 1 -9 9 9 9 0 0 1 9-9z" fill="currentColor"></path>
<path d="m19.29 32.71a1 1 0 0 0 1.41 0l3.3-3.3 3.29 3.29a1 1 0 0 0 1.41-1.41l-3.29-3.29 3.29-3.29a1 1 0 0 0 -1.41-1.41l-3.29 3.29-3.29-3.29a1 1 0 0 0 -1.41 1.41l3.29 3.29-3.29 3.29a1 1 0 0 0 -.01 1.42z" fill="currentColor"></path>
</svg>