<svg xmlns="http://www.w3.org/2000/svg" xmlns:xlink="http://www.w3.org/1999/xlink" version="1.1" viewBox="0 0 497 497" xml:space="preserve">
<g><path style="fill:#FFDD5F;" d="M405.882,156.863c14.292-3.677,24.854-16.651,24.854-32.091c0-18.3-14.835-33.134-33.134-33.134 c-2.87,0-5.654,0.365-8.31,1.051c0.011-0.35,0.026-0.699,0.026-1.051c0-18.3-14.835-33.134-33.134-33.134 c-6.823,0-13.162,2.064-18.432,5.599c-4.528-12.907-16.813-22.166-31.267-22.166c-10.099,0-19.137,4.524-25.215,11.65 c-2.377-15.967-16.141-28.216-32.769-28.216c-16.628,0-30.392,12.249-32.769,28.215c-6.077-7.126-15.115-11.65-25.214-11.65 c-14.454,0-26.739,9.258-31.267,22.166c-5.27-3.535-11.61-5.599-18.433-5.599c-18.299,0-33.134,14.835-33.134,33.134 c0,0.353,0.016,0.701,0.027,1.051c-2.655-0.686-5.44-1.051-8.31-1.051c-18.299,0-33.134,14.835-33.134,33.134 c0,15.439,10.56,28.412,24.851,32.091l1.96,39.169h310.849L405.882,156.863z"></path><g><path style="fill:#FFBC47;" d="M397.601,91.638c-2.87,0-5.654,0.366-8.31,1.051c0.011-0.35,0.027-0.699,0.027-1.052 c0-18.299-14.835-33.134-33.135-33.134c-3.484,0-6.839,0.545-9.992,1.542c13.408,4.243,23.127,16.781,23.127,31.592 c0,0.353-0.016,0.701-0.027,1.052c2.655-0.686,5.44-1.051,8.31-1.051c18.3,0,33.134,14.835,33.134,33.134 c0,15.44-10.561,28.414-24.853,32.091l-1.957,39.168h20l1.957-39.168c14.292-3.677,24.853-16.651,24.853-32.091 C430.735,106.472,415.901,91.638,397.601,91.638z"></path></g><polygon style="fill:#D4545D;" points="333.501,339.397 333.501,322.528 353.425,173.429 405.883,156.863 397.6,322.528 397.6,338.997 "></polygon><g><path style="fill:#FFBC47;" d="M215.368,71.448c-17.868,0-33.569,11.912-38.785,28.55c-17.742,2.282-32.395,16.251-35.077,34.277 c-0.61,4.097,2.217,7.913,6.314,8.523c0.374,0.056,0.745,0.082,1.113,0.082c3.653,0,6.855-2.674,7.408-6.397 c1.852-12.439,12.75-21.82,25.351-21.82s23.498,9.381,25.351,21.82c0.609,4.097,4.428,6.922,8.522,6.314 c4.097-0.61,6.924-4.426,6.313-8.523c-2.404-16.145-14.41-29.037-29.636-33.191c4.173-8.69,13.101-14.635,23.124-14.635 c12.601,0,23.499,9.38,25.351,21.819c0.554,3.723,3.755,6.397,7.408,6.397c0.367,0,0.739-0.027,1.113-0.083 c4.098-0.61,6.925-4.425,6.314-8.522C252.619,86.328,235.342,71.448,215.368,71.448z"></path><path style="fill:#FFBC47;" d="M388.087,120.167c-2.936-19.731-20.213-34.611-40.187-34.611 c-19.973,0-37.249,14.879-40.186,34.611c-0.61,4.097,2.217,7.913,6.314,8.523c0.374,0.056,0.746,0.083,1.114,0.083 c3.653,0,6.854-2.674,7.408-6.396c1.853-12.439,12.75-21.82,25.351-21.82c12.601,0,23.499,9.38,25.351,21.819 c0.609,4.097,4.425,6.921,8.521,6.314C385.87,128.08,388.697,124.265,388.087,120.167z"></path></g><polygon style="fill:#D4545D;" points="143.579,173.429 196.041,156.863 199.356,223.171 202.667,289.395 204.323,322.531 204.323,338.997 143.579,338.997 "></polygon><polygon style="fill:#FF6366;" points="143.579,173.429 151.052,322.531 151.052,338.997 99.401,338.997 99.401,322.531 91.118,156.863 "></polygon><polygon style="fill:#FF6366;" points="345.95,322.531 353.423,173.429 300.964,156.863 281.834,338.997 345.95,338.997 "></polygon><polygon style="fill:#D4545D;" points="248.502,173.429 300.961,156.863 297.648,223.13 294.335,289.395 292.678,322.531 292.678,338.997 238.834,338.997 238.834,173.429 "></polygon><polygon style="fill:#FF6366;" points="248.501,289.396 248.501,322.531 248.501,338.997 196.041,338.997 196.041,156.863 248.502,173.429 "></polygon><path style="fill:#FFDD5F;" d="M308.768,289.396H188.234c-3.314,0-6-2.686-6-6V229.13c0-3.314,2.686-6,6-6h120.534 c3.314,0,6,2.686,6,6v54.266C314.768,286.71,312.082,289.396,308.768,289.396z"></path><path style="fill:#FFBC47;" d="M308.768,223.13h-20c3.314,0,6,2.686,6,6v54.266c0,3.314-2.686,6-6,6h20c3.314,0,6-2.686,6-6V229.13 C314.768,225.817,312.082,223.13,308.768,223.13z"></path><path style="fill:#D2DCF1;" d="M491,322.531H6c-3.314,0-6,2.686-6,6v37.699c0,3.314,2.686,6,6,6h12.849c3.314,0,6,2.686,6,6v76.833 c0,9.15,7.418,16.567,16.568,16.567h173.95c9.15,0,16.568-7.417,16.568-16.567v-76.831c0-3.314,2.686-6,6-6h21.134 c3.314,0,6,2.686,6,6l-0.002,76.831c0,9.15,7.418,16.567,16.568,16.567h173.95c9.15,0,16.568-7.417,16.568-16.568v-76.832 c0-3.314,2.686-6,6-6H491c3.314,0,6-2.686,6-6v-37.699C497,325.217,494.314,322.531,491,322.531z"></path><path style="fill:#FF6366;" d="M192.801,355.66H63.984c-3.314,0-6,2.686-6,6v70.841c0,3.314,2.686,6,6,6h128.816 c3.314,0,6-2.686,6-6V361.66C198.801,358.347,196.114,355.66,192.801,355.66z"></path><path style="fill:#6BA9DE;" d="M433.015,355.66H304.2c-3.314,0-6,2.686-6,6v70.841c0,3.314,2.686,6,6,6h128.815 c3.314,0,6-2.686,6-6V361.66C439.015,358.347,436.329,355.66,433.015,355.66z"></path><g><path style="fill:#B5C3EB;" d="M211.934,378.231v76.831c0,9.15-7.418,16.567-16.568,16.567h20c9.15,0,16.568-7.417,16.568-16.567 v-76.831c0-3.314,2.686-6,6-6h-20C214.62,372.231,211.934,374.917,211.934,378.231z"></path><path style="fill:#B5C3EB;" d="M491,322.531h-20c3.314,0,6,2.686,6,6v37.699c0,3.314-2.686,6-6,6h-12.849c-3.314,0-6,2.686-6,6 v76.832c0,9.15-7.418,16.568-16.568,16.568h20c9.15,0,16.568-7.418,16.568-16.568v-76.832c0-3.314,2.686-6,6-6H491 c3.314,0,6-2.686,6-6v-37.699C497,325.217,494.314,322.531,491,322.531z"></path></g><path style="fill:#D4545D;" d="M192.801,355.66h-20c3.314,0,6,2.686,6,6v70.841c0,3.314-2.686,6-6,6h20c3.314,0,6-2.686,6-6V361.66 C198.801,358.347,196.114,355.66,192.801,355.66z"></path><path style="fill:#5E92D1;" d="M433.015,355.66h-20c3.314,0,6,2.686,6,6v70.841c0,3.314-2.686,6-6,6h20c3.314,0,6-2.686,6-6V361.66 C439.015,358.347,436.329,355.66,433.015,355.66z"></path></g>
</svg>