<svg viewBox="0 0 24 24" xmlns="http://www.w3.org/2000/svg">
<rect x="0.5" y="0.5" width="23" height="23" rx="7.5" stroke="currentColor" fill="none"/>
<path d="M13.2787 14.8415L15.0477 16.5493C15.41 16.8983 15.41 17.4653 15.0477 17.8147C14.6856 18.1642 14.0989 18.1642 13.7373 17.8147L11.998 16.1366L10.2603 17.8147C10.0791 17.9893 9.84168 18.0766 9.60425 18.0766C9.3672 18.0766 9.13015 17.9893 8.94896 17.8147C8.58695 17.4653 8.58695 16.8987 8.94858 16.5493L10.7177 14.8415C10.0736 14.6999 9.4524 14.4535 8.88023 14.107C8.44722 13.8434 8.31714 13.2913 8.58998 12.873C8.86205 12.4541 9.43423 12.328 9.86799 12.5915C11.1634 13.3781 12.8322 13.3783 14.1284 12.5915C14.5622 12.328 15.1342 12.4541 15.4068 12.873C15.6797 13.2909 15.5492 13.8434 15.1162 14.107C14.544 14.4539 13.9228 14.6999 13.2787 14.8415Z" fill="currentColor"/>
<path fill-rule="evenodd" clip-rule="evenodd" d="M8.82617 9.29466C8.82617 10.9786 10.2454 12.3485 11.9905 12.3485C13.736 12.3485 15.1549 10.9786 15.1549 9.29466C15.1549 7.61012 13.736 6.23994 11.9905 6.23994C10.2454 6.23994 8.82617 7.61012 8.82617 9.29466ZM13.3007 9.29433C13.3007 8.59691 12.713 8.02979 11.9905 8.02979C11.2686 8.02979 10.6803 8.59691 10.6803 9.29433C10.6803 9.99121 11.2686 10.5587 11.9905 10.5587C12.713 10.5587 13.3007 9.99121 13.3007 9.29433Z" fill="currentColor"/>
</svg>
