<svg viewBox="0 0 24 24" xmlns="http://www.w3.org/2000/svg">
<rect x="0.5" y="0.5" width="23" height="23" rx="7.5" stroke="currentColor" fill="none"/>
<path d="M5.73404 11.9059C6.85627 11.2877 8.10899 10.7718 9.27947 10.2532C11.2932 9.40388 13.3148 8.56924 15.3569 7.7922C15.7542 7.6598 16.4681 7.53032 16.5381 8.11912C16.4998 8.95256 16.3421 9.78112 16.234 10.6097C15.9594 12.4318 15.6422 14.2476 15.3328 16.0637C15.2262 16.6686 14.4684 16.9818 13.9835 16.5946C12.8182 15.8075 11.644 15.0281 10.4936 14.2227C10.1167 13.8398 10.4662 13.2899 10.8027 13.0165C11.7625 12.0706 12.7803 11.267 13.6899 10.2723C13.9353 9.6798 13.2103 10.1792 12.9712 10.3322C11.6573 11.2376 10.3755 12.1983 8.99023 12.9941C8.28263 13.3836 7.45791 13.0507 6.75063 12.8334C6.11646 12.5708 5.18718 12.3063 5.73398 11.9059L5.73404 11.9059Z" fill="currentColor"/>
</svg>
